<svg xmlns="http://www.w3.org/2000/svg" viewBox="0 0 71.77 82.02"><defs><style>.cls-1{fill:#fff;}</style></defs><title>web-icon</title><g><path class="cls-1" d="M10.25,10.25H0V0H10.25ZM0,82V61.52H10.25V82ZM20.51,20.51H10.25V10.25H20.51Zm-10.26,41V51.27H20.51V61.52ZM30.76,30.76H20.51V20.51H30.76ZM20.51,51.27V41H30.76V51.27ZM41,41H30.76V30.76H41Zm0-10.25V20.51H51.27V30.76ZM51.27,51.27H41V41H51.27Zm0-30.76V10.25H61.52V20.51Zm10.25,41H51.27V51.27H61.52Zm0-51.27V0H71.77V10.25Zm0,71.77V61.52H71.77V82Z"/></g></svg>