<svg xmlns="http://www.w3.org/2000/svg" viewBox="0 0 190.79 190.99"><defs><style>.cls-1{fill:#fff;}</style></defs><title>web-icon</title><g id="图层_2" data-name="图层 2"><path class="cls-1" d="M141.19,191H49.6C17.15,191,0,172.94,0,138.79V52.41C0,18.26,17.15.21,49.6.21h91.59c32.45,0,49.6,18.05,49.6,52.2v86.38C190.79,172.94,173.64,191,141.19,191ZM49.6,13.35c-25.21,0-36.46,12-36.46,39.06v86.38c0,27,11.25,39.06,36.46,39.06h91.59c25.21,0,36.46-12,36.46-39.06V52.41c0-27-11.25-39.06-36.46-39.06Z"/><path class="cls-1" d="M63.68,80.89h11l-13.73,31H73.79v11.23H37.72l13.73-31H37.72L56.19,49.93h18.1l-13.35,31Zm10.11,59.54H37.72V129.07H73.79ZM122.23,128h27v12.36H78V128h27V62.29H80.66V50.06h65.91V62.29H122.23Z"/></g></svg>