<svg xmlns="http://www.w3.org/2000/svg" viewBox="0 0 190.79 190.99"><defs><style>.cls-1{fill:#fff;}</style></defs><title>web-icon</title><g id="图层_2" data-name="图层 2"><path class="cls-1" d="M141.19.21H49.6C17.15.21,0,18.26,0,52.41v86.38C0,172.94,17.15,191,49.6,191h91.59c32.45,0,49.6-18.05,49.6-52.2V52.41C190.79,18.26,173.64.21,141.19.21Zm36.46,138.58c0,27-11.25,39.06-36.46,39.06H49.6c-25.22,0-36.46-12-36.46-39.06V52.41c0-27,11.24-39.06,36.46-39.06h91.59c25.21,0,36.46,12,36.46,39.06Z"/><path class="cls-1" d="M93.54,38.94c-14.52.21-26,4.84-34,13.78-13.1,14.54-13.29,36.05-12.25,47.57,3.1,34,18.47,51.49,45.69,52l1.73,0c16.41,0,28.74-4.13,36.67-12.28a31,31,0,0,0,8.6-23.41c-.19-4.29-.64-14.33-9.14-22a31,31,0,0,0-10-5.92A78.14,78.14,0,0,0,117.2,75l-.27-.64c-3.76-7.53-11.64-12.16-21.07-12.4-9.81-.28-19,4.23-23,11.16l10,5.66c1.8-3.17,7.18-5.45,12.67-5.33,2.41.06,8.22.75,10.93,5.77.83,2.34,1.51,4.59,2,6.73a82.79,82.79,0,0,0-13.48-.21c-21.45,1.25-26,10.75-26,18.5A19.26,19.26,0,0,0,75.46,119c6.05,5.42,14.6,6.63,20.57,6,9.55-1.07,16.89-5.31,21.23-12.27a27.72,27.72,0,0,0,3.9-11.1,16.91,16.91,0,0,1,2,1.53c4.93,4.44,5.21,10.64,5.37,14.16A19.37,19.37,0,0,1,123.12,132c-5.82,6-16.22,9-29.95,8.79-21-.37-31.89-13.55-34.44-41.51-.7-7.78-1.21-27.12,9.34-38.84,5.82-6.46,14.44-9.81,25.63-10h1c32.92,0,37.59,23.71,37.78,24.73l11.33-1.93C143.74,72.88,137.55,38.46,93.54,38.94Zm14,67.66c-3.05,4.89-8.62,6.47-12.76,6.93-3.6.41-8.6-.4-11.61-3.1a7.8,7.8,0,0,1-2.57-6.21c0-1.53,0-6.17,15.16-7.06,1.79-.1,3.5-.15,5.14-.15a58.94,58.94,0,0,1,9.1.64A18.13,18.13,0,0,1,107.51,106.6Z"/></g></svg>