<svg xmlns="http://www.w3.org/2000/svg" viewBox="0 0 190.79 190.99"><defs><style>.cls-1{fill:#fff;}</style></defs><title>web-icon</title><g id="图层_2" data-name="图层 2"><path class="cls-1" d="M141.19.1H49.6C17.15.1,0,18.15,0,52.3v86.39c0,34.15,17.15,52.2,49.6,52.2h91.59c32.45,0,49.6-18,49.6-52.2V52.3C190.79,18.15,173.64.1,141.19.1Zm36.46,138.59c0,27-11.25,39.06-36.46,39.06H49.6c-25.22,0-36.46-12-36.46-39.06V52.3c0-27,11.24-39.06,36.46-39.06h91.59c25.21,0,36.46,12,36.46,39.06Z"/><path class="cls-1" d="M110.76,127.48q-26.26,8.13-37.37-19.41l60.08-18.62a48.38,48.38,0,0,0-2.19-10Q125,59.24,111.83,50.59,98,41.61,80,47.19q-17,5.27-25.21,22.2-8.64,18-1.91,39.69Q59.74,131.3,77,140.53q16.58,8.88,35.94,2.88a57,57,0,0,0,16.16-8A66.64,66.64,0,0,0,141.21,124l-10.54-10.21A41.68,41.68,0,0,1,110.76,127.48ZM71.55,73.59A21.83,21.83,0,0,1,85,62.23q20.7-6.42,28.53,18.83L69.1,94.83Q66.79,82.64,71.55,73.59Z"/></g></svg>