<svg xmlns="http://www.w3.org/2000/svg" viewBox="0 0 190.79 190.99"><defs><style>.cls-1{fill:#fff;}</style></defs><title>web-icon</title><g id="图层_2" data-name="图层 2"><path class="cls-1" d="M141.19.21H49.6C17.15.21,0,18.26,0,52.41v86.38C0,172.94,17.15,191,49.6,191h91.59c32.45,0,49.6-18.05,49.6-52.2V52.41C190.79,18.26,173.64.21,141.19.21Zm36.46,138.58c0,27-11.25,39.06-36.46,39.06H49.6c-25.21,0-36.46-12-36.46-39.06V52.41c0-27,11.25-39.06,36.46-39.06h91.59c25.21,0,36.46,12,36.46,39.06Z"/><path class="cls-1" d="M95.39,46.86A48.74,48.74,0,1,0,144.14,95.6,48.8,48.8,0,0,0,95.39,46.86Zm0,84.34A35.6,35.6,0,1,1,131,95.6,35.64,35.64,0,0,1,95.39,131.2Z"/><circle class="cls-1" cx="144.85" cy="40.24" r="11.36"/></g></svg>