<svg xmlns="http://www.w3.org/2000/svg" viewBox="0 0 190.79 190.99"><defs><style>.cls-1{fill:#fff;}</style></defs><title>web-icon</title><g id="图层_2" data-name="图层 2"><path class="cls-1" d="M141.19.1H49.6C17.15.1,0,18.15,0,52.3v86.39c0,34.15,17.15,52.2,49.6,52.2h91.59c32.45,0,49.6-18,49.6-52.2V52.3C190.79,18.15,173.64.1,141.19.1Zm36.46,138.59c0,27-11.25,39.06-36.46,39.06H49.6c-25.21,0-36.46-12-36.46-39.06V52.3c0-27,11.25-39.06,36.46-39.06h91.59c25.21,0,36.46,12,36.46,39.06Z"/><path class="cls-1" d="M107.41,36q-14.65,0-22,8.79-6.6,7.77-6.59,21.54v6.74l-11,.88v16h11v65h21.53v-65h15.39v-17H100.37v-7q0-12.89,10-12.89A25.68,25.68,0,0,1,119,54.77l4-15.83a34.06,34.06,0,0,0-6.74-2A44.42,44.42,0,0,0,107.41,36Z"/></g></svg>